<svg width="491" height="323" viewBox="0 0 491 323" fill="none" xmlns="http://www.w3.org/2000/svg">
<path d="M338.5 1C350.5 3.33333 376 15.6 382 46C382.676 47.1697 383.338 48.3363 383.987 49.5C385.119 51.4745 386.209 53.4443 387.257 55.4092C387.526 54.6615 387.795 53.6986 388.028 52.5508C387.964 49.6253 386.593 44.4197 382 36C374.8 22.8 375.5 8 379 3C378.5 8 378.5 12.8 384.5 26C389.448 36.8854 389.171 46.932 388.028 52.5508C388.063 54.1433 387.711 55.0602 387.28 55.4523C390.009 60.5666 392.457 65.6474 394.64 70.6894C394.918 68.0445 394.942 60.6282 393 49.5C391.569 41.3017 391.24 30.7891 391.291 22.975C389.878 19.5688 389.589 17.5482 391.5 15C391.399 16.955 391.312 19.7327 391.291 22.975C392.097 24.9156 393.267 27.306 394.604 30.5C398.251 39.2142 396.18 60.7415 394.649 70.709C395.742 73.2337 396.769 75.7487 397.731 78.2534C398.518 75.3019 399.777 66.262 399 51.5C400.07 36.7 402 30 405.5 24C405.5 30.5 404.6 27.4 405 45C405.394 65.101 400.424 75.5253 397.779 78.3777C399.127 81.8936 400.348 85.389 401.447 88.862C401.858 88.0263 402.326 87.043 402.832 85.9447C403.982 82.298 405.228 75.224 405.5 63C407.5 50.6 412.5 38.5 415.5 34.5C415 39 413.6 37.4 412 59C410.968 66.9099 406.107 78.8362 402.832 85.9447C402.327 87.5465 401.84 88.487 401.463 88.9122C402.53 92.2858 403.482 95.6383 404.324 98.968C404.821 98.1981 405.364 95.9119 405.938 95C407.125 86.8333 411.2 72.5 414 66.5C416.8 60.5 416.5 47 419.5 42.5C419 49 420.026 54 419 61.5C417.5 72.4659 411.02 86.9246 405.938 95C405.364 95.9119 404.821 98.1981 404.324 98.968C404.582 99.9901 404.83 101.01 405.068 102.028C405.392 103.357 405.698 104.681 405.988 106C406.601 105.157 407.278 104.172 408 103.069C413.297 77.9246 424 58 429 49.5C429 50.5 427.2 54.9 424 68.5C421.787 79.1213 413.562 94.5738 408 103.069C407.278 104.172 406.601 105.157 405.988 106C406.727 109.368 407.354 112.702 407.875 116C408.076 115.772 408.284 115.53 408.5 115.274C410.833 107.682 416.5 91 421 83C424.837 76.1788 428.5 67.5 431.5 64C431 66.5 430.13 68 429.5 71.5C426.026 90.7981 414.437 108.234 408.5 115.274C408.284 115.53 408.076 115.772 407.875 116C408.408 119.371 408.829 122.704 409.144 126C410.43 122.667 414.2 113.414 419 103.069C423.8 92.7246 437 76 443 70C442.5 72.5 437.3 79.2 432.5 88C429.7 96.4 415.763 116.833 409.144 126C409.5 129.715 409.721 133.382 409.816 137C410.877 133 414.2 123.5 419 117.5C428.6 103.1 443.5 86.5 450.5 83.5C446 89.5 448 87.7 442 96.5C434 111.7 417.211 129.833 409.816 137C409.941 141.752 409.847 146.42 409.554 151C409.869 149.167 412.2 142.9 419 132.5C426.885 120.9 434.952 113 438 110.5L455.5 96.5C455 98 453.4 98.8 449 106C443 115.6 436.167 123.333 433.5 126L409.554 151C408.068 174.154 401.463 195.07 392.047 213.405C375.456 247.277 349.821 272.63 327.822 285.019C349.43 270.681 375.225 246.16 392.047 213.405C407.277 182.312 414.886 144.04 405.068 102.028C404.823 101.021 404.568 100.012 404.302 99C403.437 95.6983 402.464 92.3648 401.379 89C400.261 85.5329 399.024 82.0326 397.662 78.5C396.705 76.0159 395.686 73.5158 394.604 71C392.409 65.8974 389.954 60.73 387.224 55.5C386.185 53.509 385.106 51.509 383.987 49.5C383.338 48.3363 382.676 47.1697 382 46C374.5 35.5 367.202 33.8026 361 24.5C354.798 15.1974 343 5.5 338.5 1Z" fill="#017D37"/>
<path d="M321.5 289C355.756 268.607 405.15 219.64 409.554 151M382 46C376 15.6 350.5 3.33333 338.5 1C343 5.5 354.798 15.1974 361 24.5C367.202 33.8026 374.5 35.5 382 46ZM382 46C382.676 47.1697 383.338 48.3363 383.987 49.5M387.224 55.5C388.816 51.1667 390.5 39.2 384.5 26C378.5 12.8 378.5 8 379 3C375.5 8 374.8 22.8 382 36C389.2 49.2 388.483 54.5 387.224 55.5ZM387.224 55.5C389.954 60.73 392.409 65.8974 394.604 71M387.224 55.5C386.185 53.509 385.106 51.509 383.987 49.5M394.604 71C396.139 61.1667 398.287 39.3 394.604 30.5C390.921 21.7 388.5 19 391.5 15C391.156 21.6667 390.975 37.9 393 49.5C395.025 61.1 394.913 68.6667 394.604 71ZM394.604 71C395.686 73.5158 396.705 76.0159 397.662 78.5M397.662 78.5C400.275 75.8333 405.4 65.4 405 45C404.6 27.4 405.5 30.5 405.5 24C402 30 400.07 36.7 399 51.5C399.8 66.7 398.442 75.8333 397.662 78.5ZM397.662 78.5C399.024 82.0326 400.261 85.5329 401.379 89M401.379 89C404.42 82.8333 410.8 68.2 412 59C413.6 37.4 415 39 415.5 34.5C412.5 38.5 407.5 50.6 405.5 63C405.1 81 402.586 87.8333 401.379 89ZM401.379 89C402.464 92.3648 403.437 95.6983 404.302 99M404.302 99C404.806 98.2635 405.356 95.9249 405.938 95M404.302 99C404.918 101.35 405.479 103.683 405.988 106M405.938 95C411.02 86.9246 417.5 72.4659 419 61.5C420.026 54 419 49 419.5 42.5C416.5 47 416.8 60.5 414 66.5C411.2 72.5 407.125 86.8333 405.938 95ZM405.988 106C406.601 105.157 407.278 104.172 408 103.069M405.988 106C406.727 109.368 407.354 112.702 407.875 116M408 103.069C413.562 94.5738 421.787 79.1213 424 68.5C427.2 54.9 429 50.5 429 49.5C424 58 413.297 77.9246 408 103.069ZM407.875 116C408.076 115.772 408.284 115.53 408.5 115.274M407.875 116C408.408 119.371 408.829 122.704 409.144 126M408.5 115.274C414.437 108.234 426.026 90.7981 429.5 71.5C430.13 68 431 66.5 431.5 64C428.5 67.5 424.837 76.1788 421 83C416.5 91 410.833 107.682 408.5 115.274ZM409.144 126C415.763 116.833 429.7 96.4 432.5 88C437.3 79.2 442.5 72.5 443 70C437 76 423.8 92.7246 419 103.069C414.2 113.414 410.43 122.667 409.144 126ZM409.144 126C409.5 129.715 409.721 133.382 409.816 137M409.816 137C417.211 129.833 434 111.7 442 96.5C448 87.7 446 89.5 450.5 83.5C443.5 86.5 428.6 103.1 419 117.5C414.2 123.5 410.877 133 409.816 137ZM409.816 137C409.941 141.752 409.847 146.42 409.554 151M409.554 151L433.5 126C436.167 123.333 443 115.6 449 106C453.4 98.8 455 98 455.5 96.5L438 110.5C434.952 113 426.885 120.9 419 132.5C412.2 142.9 409.869 149.167 409.554 151ZM321 288.5C371.5 265.5 450.5 165.5 383.987 49.5" stroke="#017D37"/>
<path d="M347 98C385 94.5 402 119.833 409.5 134.5C405.1 129.3 400 124.667 398 123C388.167 114.667 361.5 104.5 347 98Z" fill="#017D37"/>
<path d="M351.5 145.5C377.5 138.7 399 160 406.5 171.5C402.5 167.167 390.8 157 376 151C361.2 145 344.167 149.167 337.5 152C340 150.333 346.3 146.7 351.5 145.5Z" fill="#017D37"/>
<path d="M349 153.5C350.5 153 355.5 154.3 361.5 157.5C384.45 169.357 393.379 192.523 395.282 204C392.355 198.167 382.4 183 366 169C356 157.4 350.5 154 349 153.5Z" fill="#017D37"/>
<path d="M330 165C332.167 166 338.7 169.1 347.5 173.5C370.309 186.008 381.332 209.062 384.77 221.5C385.07 222.586 385.313 223.59 385.5 224.5L393 219.5L403.5 212.5C409.333 208.5 425.2 199.6 442 196C458.8 192.4 481 192.5 490 193C484.5 192.833 469.1 194.5 451.5 202.5C441.1 207.3 408.167 215.833 393 219.5L385.5 224.5C385.313 223.59 385.07 222.586 384.77 221.5C380.68 214.833 370.9 200.4 364.5 196C358.1 191.6 351.5 185.833 349 183.5L330 165Z" fill="#017D37"/>
<path d="M399.5 295C398.333 291.5 396.875 284 386 273.5C385.53 273.046 385.055 272.614 384.575 272.201C373.751 266.683 361.792 265.079 357.5 264.715C364.01 263.762 375.182 264.128 384.575 272.201C391.406 275.684 397.785 280.726 401.5 288C408.832 302.359 408.659 312.382 409.356 317.355C409.707 318.3 410.086 319.342 410.5 320.5C409.87 319.949 409.571 318.894 409.356 317.355C405.459 306.877 405.004 308.301 399.5 295Z" fill="#017D37"/>
<path d="M461.5 283.5C458.833 280.167 449.6 271.2 434 262C408.833 248.061 380.699 248.614 368.644 250.78C392 251 398 252.5 418.5 264.715C443.121 279.385 451 280.5 461.5 283.5Z" fill="#017D37"/>
<path d="M479.5 240.5C476.833 238.667 466.8 234.2 448 231C408.65 225.477 387.32 232.217 379 237.916C386.833 234.944 406 231 422 233C451.5 237.916 454 236.5 479.5 240.5Z" fill="#017D37"/>
<path d="M484 174.5C478.833 174.167 463.9 174.8 445.5 180C428.698 184.748 409.227 195.139 399.5 200.969C408.3 198.545 418.833 196.646 423 196C428.167 194.667 441.6 190.3 454 183.5C466.4 176.7 479.167 174.667 484 174.5Z" fill="#017D37"/>
<path d="M395.5 205.5C395.442 205.026 395.369 204.525 395.282 204M395.282 204C393.379 192.523 384.45 169.357 361.5 157.5C355.5 154.3 350.5 153 349 153.5C350.5 154 356 157.4 366 169C382.4 183 392.355 198.167 395.282 204ZM384.77 221.5C385.07 222.586 385.313 223.59 385.5 224.5L393 219.5M384.77 221.5C381.332 209.062 370.309 186.008 347.5 173.5C338.7 169.1 332.167 166 330 165L349 183.5C351.5 185.833 358.1 191.6 364.5 196C370.9 200.4 380.68 214.833 384.77 221.5ZM354 265.5C354.946 265.194 356.13 264.915 357.5 264.715M357.5 264.715C364.343 263.713 376.336 264.169 386 273.5C396.875 284 398.333 291.5 399.5 295C405.5 309.5 405.5 306.5 410.5 320.5C407.833 318.167 411.1 306.8 401.5 288C391.9 269.2 364.5 265.31 357.5 264.715ZM367.5 251C367.863 250.925 368.245 250.852 368.644 250.78M368.644 250.78C380.699 248.614 408.833 248.061 434 262C449.6 271.2 458.833 280.167 461.5 283.5C451 280.5 443.121 279.385 418.5 264.715C398 252.5 392 251 368.644 250.78ZM376 240.5C376.685 239.701 377.679 238.822 379 237.916M379 237.916C387.32 232.217 408.65 225.477 448 231C466.8 234.2 476.833 238.667 479.5 240.5C454 236.5 451.5 237.916 422 233C406 231 386.833 234.944 379 237.916ZM397 202.5C397.738 202.037 398.575 201.524 399.5 200.969M399.5 200.969C409.227 195.139 428.698 184.748 445.5 180C463.9 174.8 478.833 174.167 484 174.5C479.167 174.667 466.4 176.7 454 183.5C441.6 190.3 428.167 194.667 423 196C418.833 196.646 408.3 198.545 399.5 200.969ZM393 219.5L403.5 212.5C409.333 208.5 425.2 199.6 442 196C458.8 192.4 481 192.5 490 193C484.5 192.833 469.1 194.5 451.5 202.5C441.1 207.3 408.167 215.833 393 219.5ZM409.5 134.5C402 119.833 385 94.5 347 98C361.5 104.5 388.167 114.667 398 123C400 124.667 405.1 129.3 409.5 134.5ZM406.5 171.5C399 160 377.5 138.7 351.5 145.5C346.3 146.7 340 150.333 337.5 152C344.167 149.167 361.2 145 376 151C390.8 157 402.5 167.167 406.5 171.5Z" stroke="#017D37"/>
<path d="M408.5 164L409.571 163M409.571 163L438.5 136C441.333 133.333 448.9 125.4 456.5 115C464.1 104.6 463 104.5 465 104.5C461.167 106.667 450.2 114 437 126C423.8 138 413.214 155.667 409.571 163ZM406.5 174.5C406.815 174.314 407.149 174.116 407.5 173.906M407.5 173.906C415.323 169.237 431.781 158.922 442.5 150.5C453.7 141.7 459 134 461 131.5C466.5 125.5 474 118 475 117.5C481.229 114.386 443.5 132.5 433.5 144C418.7 157.2 410 169.437 407.5 173.906ZM401.5 191.5C402.726 190.931 404.134 190.261 405.693 189.5M405.693 189.5C418.756 183.123 442.419 170.365 458.5 157.5C463.7 153.5 465.333 151.833 465.5 151.5C467.667 149.167 478.5 140 483 137C473 137.5 442.667 156.333 433 162.5C425 168 410.648 176.3 405.693 189.5ZM390 61.5C384.667 54.1667 367.5 34.5 349.5 30.5C356.5 37.5 358.477 37.9773 364 43.5C366.5 46 374.4 54.1 386 60.5C388 61.3 389.5 61.5 390 61.5ZM397 77C390 73.3333 372.1 62.8 356.5 50C353.7 46.8 350.667 45.6667 349.5 45.5C353.5 43.5 367.9 50.5 383.5 64.5C391.5 70.5 395.833 75.3333 397 77Z" stroke="#017D37"/>
<path d="M364.5 60.5C384.1 72.5 398.667 89.5 403.5 96.5C402.763 95.5 398.932 91.9 389.5 85.5C368.7 69.5 355.5 57.5 353 53.5C355 54.5 359.7 57.7 364.5 60.5Z" fill="#017D37"/>
<path d="M344 62.5C346.5 62.8333 355.3 65.5 370.5 73.5C385.378 81.3305 399.873 98.1032 405.638 106C401.425 103.167 389.3 94.4 374.5 82C359.7 69.6 347 65 344 62.5Z" fill="#017D37"/>
<path d="M363 96C381.8 88.4 400.5 106.5 407.5 116.5C400.7 109.3 394.667 105.833 392.5 105C388.833 103 379.7 98.7 372.5 97.5C365.3 96.3 355 102 350.5 105C351.333 103.333 355 99.2 363 96Z" fill="#017D37"/>
<path d="M369.5 128C394.7 131.6 406.333 146.833 409 154L406 151.5L399 146.5C398.333 145.667 393.6 142.5 380 136.5C366.4 130.5 350.5 132 343.5 131C348.5 129 357.5 126.8 369.5 128Z" fill="#017D37"/>
<path d="M409.5 140C409.327 139.777 409.147 139.549 408.958 139.314C408.349 139.034 407.276 138.776 406 137.5C403.2 134.7 397.5 131.333 395 130C392.167 128.5 384.6 124.6 377 121C370.6 117 354 116.667 346.5 117C349.5 115 356.6 112.8 367 114C385.288 115.167 402.219 130.938 408.958 139.314C409.303 139.473 409.5 139.638 409.5 140Z" fill="#017D37"/>
<path d="M406 106.5C405.884 106.338 405.763 106.171 405.638 106M405.638 106C399.873 98.1032 385.378 81.3305 370.5 73.5C355.3 65.5 346.5 62.8333 344 62.5C347 65 359.7 69.6 374.5 82C389.3 94.4 401.425 103.167 405.638 106ZM403.5 96.5C398.667 89.5 384.1 72.5 364.5 60.5C359.7 57.7 355 54.5 353 53.5C355.5 57.5 368.7 69.5 389.5 85.5C398.932 91.9 402.763 95.5 403.5 96.5ZM407.5 116.5C400.5 106.5 381.8 88.4 363 96C355 99.2 351.333 103.333 350.5 105C355 102 365.3 96.3 372.5 97.5C379.7 98.7 388.833 103 392.5 105C394.667 105.833 400.7 109.3 407.5 116.5ZM409 154C406.333 146.833 394.7 131.6 369.5 128C357.5 126.8 348.5 129 343.5 131C350.5 132 366.4 130.5 380 136.5C393.6 142.5 398.333 145.667 399 146.5L406 151.5L409 154ZM409.5 140C403.167 131.833 385.8 115.2 367 114C356.6 112.8 349.5 115 346.5 117C354 116.667 370.6 117 377 121C384.6 124.6 392.167 128.5 395 130C397.5 131.333 403.2 134.7 406 137.5C408 139.5 409.5 139 409.5 140Z" stroke="#017D37"/>
<path d="M152.5 1C140.5 3.33333 115 15.6 109 46C108.324 47.1697 107.662 48.3363 107.013 49.5C105.881 51.4745 104.791 53.4443 103.743 55.4092C103.474 54.6615 103.205 53.6986 102.972 52.5508C103.036 49.6253 104.407 44.4197 109 36C116.2 22.8 115.5 8 112 3C112.5 8 112.5 12.8 106.5 26C101.552 36.8854 101.829 46.932 102.972 52.5508C102.937 54.1433 103.289 55.0602 103.72 55.4523C100.991 60.5666 98.5432 65.6474 96.3595 70.6894C96.0816 68.0445 96.0578 60.6282 98 49.5C99.4309 41.3017 99.7601 30.7891 99.7088 22.975C101.122 19.5688 101.411 17.5482 99.5 15C99.6008 16.955 99.6875 19.7327 99.7088 22.975C98.9034 24.9156 97.7329 27.306 96.3961 30.5C92.7489 39.2142 94.8202 60.7415 96.3511 70.709C95.258 73.2337 94.2312 75.7487 93.2689 78.2534C92.4819 75.3019 91.2231 66.262 92 51.5C90.9299 36.7 89 30 85.5 24C85.5 30.5 86.4 27.4 86 45C85.6059 65.101 90.576 75.5253 93.2212 78.3777C91.8731 81.8936 90.6521 85.389 89.5528 88.862C89.1424 88.0263 88.6742 87.043 88.1681 85.9447C87.0181 82.298 85.7716 75.224 85.5 63C83.5 50.6 78.5 38.5 75.5 34.5C76 39 77.4 37.4 79 59C80.0317 66.9099 84.8929 78.8362 88.1681 85.9447C88.6733 87.5465 89.1598 88.487 89.5369 88.9122C88.4701 92.2858 87.5182 95.6383 86.6763 98.968C86.1786 98.1981 85.6359 95.9119 85.0621 95C83.8747 86.8333 79.8 72.5 77 66.5C74.2 60.5 74.5 47 71.5 42.5C72 49 70.9741 54 72 61.5C73.5 72.4659 79.9802 86.9246 85.0621 95C85.6359 95.9119 86.1786 98.1981 86.6763 98.968C86.4179 99.9901 86.1698 101.01 85.932 102.028C85.6081 103.357 85.3016 104.681 85.0122 106C84.399 105.157 83.7219 104.172 83 103.069C77.7035 77.9246 67 58 62 49.5C62 50.5 63.8 54.9 67 68.5C69.2128 79.1213 77.4382 94.5738 83 103.069C83.7219 104.172 84.399 105.157 85.0122 106C84.2732 109.368 83.6457 112.702 83.1248 116C82.9244 115.772 82.716 115.53 82.5 115.274C80.1667 107.682 74.5 91 70 83C66.1631 76.1788 62.5 67.5 59.5 64C60 66.5 60.87 68 61.5 71.5C64.9736 90.7981 76.5627 108.234 82.5 115.274C82.716 115.53 82.9244 115.772 83.1248 116C82.5924 119.371 82.1712 122.704 81.8557 126C80.5705 122.667 76.8 113.414 72 103.069C67.2 92.7246 54 76 48 70C48.5 72.5 53.7 79.2 58.5 88C61.3 96.4 75.2371 116.833 81.8557 126C81.5001 129.715 81.2787 133.382 81.1838 137C80.1226 133 76.8 123.5 72 117.5C62.4 103.1 47.5 86.5 40.5 83.5C45 89.5 43 87.7 49 96.5C57 111.7 73.7892 129.833 81.1838 137C81.0592 141.752 81.1527 146.42 81.4465 151C81.131 149.167 78.8 142.9 72 132.5C64.1154 120.9 56.0481 113 53 110.5L35.5 96.5C36 98 37.6 98.8 42 106C48 115.6 54.8333 123.333 57.5 126L81.4465 151C82.9319 174.154 89.5368 195.07 98.9532 213.405C115.544 247.277 141.179 272.63 163.178 285.019C141.57 270.681 115.775 246.16 98.9532 213.405C83.7233 182.312 76.1139 144.04 85.932 102.028C86.1771 101.021 86.4323 100.012 86.6975 99C87.5627 95.6983 88.5356 92.3648 89.6207 89C90.7387 85.5329 91.976 82.0326 93.3376 78.5C94.2951 76.0159 95.314 73.5158 96.3961 71C98.5909 65.8974 101.046 60.73 103.776 55.5C104.815 53.509 105.894 51.509 107.013 49.5C107.662 48.3363 108.324 47.1697 109 46C116.5 35.5 123.798 33.8026 130 24.5C136.202 15.1974 148 5.5 152.5 1Z" fill="#017D37"/>
<path d="M169.5 289C135.244 268.607 85.8498 219.64 81.4465 151M109 46C115 15.6 140.5 3.33333 152.5 1C148 5.5 136.202 15.1974 130 24.5C123.798 33.8026 116.5 35.5 109 46ZM109 46C108.324 47.1697 107.662 48.3363 107.013 49.5M103.776 55.5C102.184 51.1667 100.5 39.2 106.5 26C112.5 12.8 112.5 8 112 3C115.5 8 116.2 22.8 109 36C101.8 49.2 102.517 54.5 103.776 55.5ZM103.776 55.5C101.046 60.73 98.5909 65.8974 96.3961 71M103.776 55.5C104.815 53.509 105.894 51.509 107.013 49.5M96.3961 71C94.8615 61.1667 92.713 39.3 96.3961 30.5C100.079 21.7 102.5 19 99.5 15C99.8436 21.6667 100.025 37.9 98 49.5C95.9754 61.1 96.0872 68.6667 96.3961 71ZM96.3961 71C95.314 73.5158 94.2951 76.0159 93.3376 78.5M93.3376 78.5C90.7251 75.8333 85.6 65.4 86 45C86.4 27.4 85.5 30.5 85.5 24C89 30 90.9299 36.7 92 51.5C91.2 66.7 92.5584 75.8333 93.3376 78.5ZM93.3376 78.5C91.976 82.0326 90.7387 85.5329 89.6207 89M89.6207 89C86.5804 82.8333 80.2 68.2 79 59C77.4 37.4 76 39 75.5 34.5C78.5 38.5 83.5 50.6 85.5 63C85.9 81 88.4138 87.8333 89.6207 89ZM89.6207 89C88.5356 92.3648 87.5627 95.6983 86.6975 99M86.6975 99C86.1941 98.2635 85.6441 95.9249 85.0621 95M86.6975 99C86.0818 101.35 85.5206 103.683 85.0122 106M85.0621 95C79.9802 86.9246 73.5 72.4659 72 61.5C70.9741 54 72 49 71.5 42.5C74.5 47 74.2 60.5 77 66.5C79.8 72.5 83.8747 86.8333 85.0621 95ZM85.0122 106C84.399 105.157 83.7219 104.172 83 103.069M85.0122 106C84.2732 109.368 83.6457 112.702 83.1248 116M83 103.069C77.4382 94.5738 69.2128 79.1213 67 68.5C63.8 54.9 62 50.5 62 49.5C67 58 77.7035 77.9246 83 103.069ZM83.1248 116C82.9244 115.772 82.716 115.53 82.5 115.274M83.1248 116C82.5924 119.371 82.1712 122.704 81.8557 126M82.5 115.274C76.5627 108.234 64.9737 90.7981 61.5 71.5C60.87 68 60 66.5 59.5 64C62.5 67.5 66.1631 76.1788 70 83C74.5 91 80.1667 107.682 82.5 115.274ZM81.8557 126C75.2371 116.833 61.3 96.4 58.5 88C53.7 79.2 48.5 72.5 48 70C54 76 67.2 92.7246 72 103.069C76.8 113.414 80.5705 122.667 81.8557 126ZM81.8557 126C81.5001 129.715 81.2787 133.382 81.1838 137M81.1838 137C73.7892 129.833 57 111.7 49 96.5C43 87.7 45 89.5 40.5 83.5C47.5 86.5 62.4 103.1 72 117.5C76.8 123.5 80.1226 133 81.1838 137ZM81.1838 137C81.0592 141.752 81.1527 146.42 81.4465 151M81.4465 151L57.5 126C54.8333 123.333 48 115.6 42 106C37.6 98.8 36 98 35.5 96.5L53 110.5C56.0481 113 64.1154 120.9 72 132.5C78.8 142.9 81.131 149.167 81.4465 151ZM170 288.5C119.5 265.5 40.5 165.5 107.013 49.5" stroke="#017D37"/>
<path d="M144 98C106 94.5 89 119.833 81.5 134.5C85.9 129.3 91 124.667 93 123C102.833 114.667 129.5 104.5 144 98Z" fill="#017D37"/>
<path d="M139.5 145.5C113.5 138.7 92 160 84.5 171.5C88.5 167.167 100.2 157 115 151C129.8 145 146.833 149.167 153.5 152C151 150.333 144.7 146.7 139.5 145.5Z" fill="#017D37"/>
<path d="M142 153.5C140.5 153 135.5 154.3 129.5 157.5C106.55 169.357 97.6212 192.523 95.7178 204C98.6452 198.167 108.6 183 125 169C135 157.4 140.5 154 142 153.5Z" fill="#017D37"/>
<path d="M161 165C158.833 166 152.3 169.1 143.5 173.5C120.691 186.008 109.668 209.062 106.23 221.5C105.93 222.586 105.687 223.59 105.5 224.5L98 219.5L87.5 212.5C81.6667 208.5 65.8 199.6 49 196C32.2 192.4 10 192.5 1 193C6.5 192.833 21.9 194.5 39.5 202.5C49.9 207.3 82.8333 215.833 98 219.5L105.5 224.5C105.687 223.59 105.93 222.586 106.23 221.5C110.32 214.833 120.1 200.4 126.5 196C132.9 191.6 139.5 185.833 142 183.5L161 165Z" fill="#017D37"/>
<path d="M91.5 295C92.6667 291.5 94.125 284 105 273.5C105.47 273.046 105.945 272.614 106.425 272.201C117.249 266.683 129.208 265.079 133.5 264.715C126.99 263.762 115.818 264.128 106.425 272.201C99.5939 275.684 93.2145 280.726 89.5 288C82.1677 302.359 82.3413 312.382 81.6443 317.355C81.2929 318.3 80.9136 319.342 80.5 320.5C81.1299 319.949 81.4288 318.894 81.6443 317.355C85.5411 306.877 85.9963 308.301 91.5 295Z" fill="#017D37"/>
<path d="M29.5 283.5C32.1667 280.167 41.4 271.2 57 262C82.1669 248.061 110.301 248.614 122.356 250.78C99 251 93 252.5 72.5 264.715C47.8789 279.385 40 280.5 29.5 283.5Z" fill="#017D37"/>
<path d="M11.5 240.5C14.1667 238.667 24.2 234.2 43 231C82.3504 225.477 103.68 232.217 112 237.916C104.167 234.944 85 231 69 233C39.5 237.916 37 236.5 11.5 240.5Z" fill="#017D37"/>
<path d="M7 174.5C12.1667 174.167 27.1 174.8 45.5 180C62.3022 184.748 81.7728 195.139 91.5 200.969C82.7 198.545 72.1667 196.646 68 196C62.8333 194.667 49.4 190.3 37 183.5C24.6 176.7 11.8333 174.667 7 174.5Z" fill="#017D37"/>
<path d="M95.5 205.5C95.5583 205.026 95.6307 204.525 95.7178 204M95.7178 204C97.6212 192.523 106.55 169.357 129.5 157.5C135.5 154.3 140.5 153 142 153.5C140.5 154 135 157.4 125 169C108.6 183 98.6452 198.167 95.7178 204ZM106.23 221.5C105.93 222.586 105.687 223.59 105.5 224.5L98 219.5M106.23 221.5C109.668 209.062 120.691 186.008 143.5 173.5C152.3 169.1 158.833 166 161 165L142 183.5C139.5 185.833 132.9 191.6 126.5 196C120.1 200.4 110.32 214.833 106.23 221.5ZM137 265.5C136.054 265.194 134.87 264.915 133.5 264.715M133.5 264.715C126.657 263.713 114.664 264.169 105 273.5C94.125 284 92.6667 291.5 91.5 295C85.5 309.5 85.5 306.5 80.5 320.5C83.1667 318.167 79.9 306.8 89.5 288C99.1 269.2 126.5 265.31 133.5 264.715ZM123.5 251C123.137 250.925 122.755 250.852 122.356 250.78M122.356 250.78C110.301 248.614 82.1669 248.061 57 262C41.4 271.2 32.1667 280.167 29.5 283.5C40 280.5 47.8789 279.385 72.5 264.715C93 252.5 99 251 122.356 250.78ZM115 240.5C114.315 239.701 113.321 238.822 112 237.916M112 237.916C103.68 232.217 82.3504 225.477 43 231C24.2 234.2 14.1667 238.667 11.5 240.5C37 236.5 39.5 237.916 69 233C85 231 104.167 234.944 112 237.916ZM94 202.5C93.2619 202.037 92.425 201.524 91.5 200.969M91.5 200.969C81.7728 195.139 62.3022 184.748 45.5 180C27.1 174.8 12.1667 174.167 7 174.5C11.8333 174.667 24.6 176.7 37 183.5C49.4 190.3 62.8333 194.667 68 196C72.1667 196.646 82.7 198.545 91.5 200.969ZM98 219.5L87.5 212.5C81.6667 208.5 65.8 199.6 49 196C32.2 192.4 10 192.5 1 193C6.5 192.833 21.9 194.5 39.5 202.5C49.9 207.3 82.8333 215.833 98 219.5ZM81.5 134.5C89 119.833 106 94.5 144 98C129.5 104.5 102.833 114.667 93 123C91 124.667 85.9 129.3 81.5 134.5ZM84.5 171.5C92 160 113.5 138.7 139.5 145.5C144.7 146.7 151 150.333 153.5 152C146.833 149.167 129.8 145 115 151C100.2 157 88.5 167.167 84.5 171.5Z" stroke="#017D37"/>
<path d="M82.5 164L81.4286 163M81.4286 163L52.5 136C49.6667 133.333 42.1 125.4 34.5 115C26.9 104.6 28 104.5 26 104.5C29.8333 106.667 40.8 114 54 126C67.2 138 77.7857 155.667 81.4286 163ZM84.5 174.5C84.1849 174.314 83.8512 174.116 83.5 173.906M83.5 173.906C75.6774 169.237 59.2188 158.922 48.5 150.5C37.3 141.7 32 134 30 131.5C24.5 125.5 17 118 16 117.5C9.77104 114.386 47.5 132.5 57.5 144C72.3 157.2 81 169.437 83.5 173.906ZM89.5 191.5C88.2738 190.931 86.8657 190.261 85.3067 189.5M85.3067 189.5C72.2437 183.123 48.5808 170.365 32.5 157.5C27.3 153.5 25.6667 151.833 25.5 151.5C23.3333 149.167 12.5 140 8 137C18 137.5 48.3333 156.333 58 162.5C66 168 80.352 176.3 85.3067 189.5ZM101 61.5C106.333 54.1667 123.5 34.5 141.5 30.5C134.5 37.5 132.523 37.9773 127 43.5C124.5 46 116.6 54.1 105 60.5C103 61.3 101.5 61.5 101 61.5ZM94 77C101 73.3333 118.9 62.8 134.5 50C137.3 46.8 140.333 45.6667 141.5 45.5C137.5 43.5 123.1 50.5 107.5 64.5C99.5 70.5 95.1667 75.3333 94 77Z" stroke="#017D37"/>
<path d="M126.5 60.5C106.9 72.5 92.3333 89.5 87.5 96.5C88.2365 95.5 92.0677 91.9 101.5 85.5C122.3 69.5 135.5 57.5 138 53.5C136 54.5 131.3 57.7 126.5 60.5Z" fill="#017D37"/>
<path d="M147 62.5C144.5 62.8333 135.7 65.5 120.5 73.5C105.622 81.3305 91.1271 98.1032 85.3619 106C89.5746 103.167 101.7 94.4 116.5 82C131.3 69.6 144 65 147 62.5Z" fill="#017D37"/>
<path d="M128 96C109.2 88.4 90.5 106.5 83.5 116.5C90.3 109.3 96.3333 105.833 98.5 105C102.167 103 111.3 98.7 118.5 97.5C125.7 96.3 136 102 140.5 105C139.667 103.333 136 99.2 128 96Z" fill="#017D37"/>
<path d="M121.5 128C96.3 131.6 84.6667 146.833 82 154L85 151.5L92 146.5C92.6667 145.667 97.4 142.5 111 136.5C124.6 130.5 140.5 132 147.5 131C142.5 129 133.5 126.8 121.5 128Z" fill="#017D37"/>
<path d="M81.5 140C81.6726 139.777 81.8534 139.549 82.0421 139.314C82.6514 139.034 83.7239 138.776 85 137.5C87.8 134.7 93.5 131.333 96 130C98.8333 128.5 106.4 124.6 114 121C120.4 117 137 116.667 144.5 117C141.5 115 134.4 112.8 124 114C105.712 115.167 88.7809 130.938 82.0421 139.314C81.6965 139.473 81.5 139.638 81.5 140Z" fill="#017D37"/>
<path d="M85 106.5C85.1165 106.338 85.2372 106.171 85.3619 106M85.3619 106C91.1271 98.1032 105.622 81.3305 120.5 73.5C135.7 65.5 144.5 62.8333 147 62.5C144 65 131.3 69.6 116.5 82C101.7 94.4 89.5746 103.167 85.3619 106ZM87.5 96.5C92.3333 89.5 106.9 72.5 126.5 60.5C131.3 57.7 136 54.5 138 53.5C135.5 57.5 122.3 69.5 101.5 85.5C92.0677 91.9 88.2365 95.5 87.5 96.5ZM83.5 116.5C90.5 106.5 109.2 88.4 128 96C136 99.2 139.667 103.333 140.5 105C136 102 125.7 96.3 118.5 97.5C111.3 98.7 102.167 103 98.5 105C96.3333 105.833 90.3 109.3 83.5 116.5ZM82 154C84.6667 146.833 96.3 131.6 121.5 128C133.5 126.8 142.5 129 147.5 131C140.5 132 124.6 130.5 111 136.5C97.4 142.5 92.6667 145.667 92 146.5L85 151.5L82 154ZM81.5 140C87.8333 131.833 105.2 115.2 124 114C134.4 112.8 141.5 115 144.5 117C137 116.667 120.4 117 114 121C106.4 124.6 98.8333 128.5 96 130C93.5 131.333 87.8 134.7 85 137.5C83 139.5 81.5 139 81.5 140Z" stroke="#017D37"/>
</svg>
